# xmcd
#
# Track frame offsets: 
#        150
#        8820
#        19052
#        31875
#        40850
#        50245
#        63337
#        81750
#        91562
#        103920
#        114372
#        124487
#        135867
#        144927
#        156987
#        165305
#        174860
#        186465
#        197730
#        207745
#        218100
#        231222
#        244320
#        256782
#        265755
#        276917
#        290517
#
# Disc length: 3984 seconds
#
# Revision: 2
# Processed by: cddbd v1.5.2PL0 Copyright (c) Steve Scherf et al.
# Submitted via: ExactAudioCopy v1.0b1
#
DISCID=800f8e1b
DTITLE=Johnny Cash - The Man in Black: 1959-1962 [CD3]
DYEAR=1991
DGENRE=Country
TTITLE0=Tall Man (stereo)
TTITLE1=Girl In Saskatoon (stereo)
TTITLE2=Locomotive Man (stereo)
TTITLE3=The Losing Kind (version 2) (stereo)
TTITLE4=Five Minutes To Live (version 1) (stereo)
TTITLE5=Forty Shades Of Green (stereo)
TTITLE6=The Big Battle (stereo)
TTITLE7=Blues For Two (stereo)
TTITLE8=Jeri And Nina's Melody (stereo)
TTITLE9=Why Do You Punish Me? (stereo)
TTITLE10=Just One More (stereo)
TTITLE11=Seasons Of My Heart (stereo)
TTITLE12=Honky Tonk Girl (stereo)
TTITLE13=I'm So Lonesome I Could Cry (stereo)
TTITLE14=Time Changes Everything (stereo)
TTITLE15=I'd Just Be Fool Enough (stereo)
TTITLE16=Transfusion Blues (stereo)
TTITLE17=Lovin' Locomotive Man (stereo)
TTITLE18=Five Minutes To Live (version 2) (stereo)
TTITLE19=Mr. Lonesome (stereo)
TTITLE20=Forty Shades Of Green (alt) (stereo)
TTITLE21=Folsom Prison Blues (Columbia version) (stereo)
TTITLE22=I Walk The Line (Columbia version) (stereo)
TTITLE23=Hey Porter (Columbia version) (stereo)
TTITLE24=I Forgot More Than You'll Ever Know About Her (version 1) (st
TTITLE24=ereo)
TTITLE25=There's A Mother Always Waiting (stereo)
TTITLE26=The Losing Kind (version 1) (stereo)
EXTD=
EXTT0=
EXTT1=
EXTT2=
EXTT3=
EXTT4=
EXTT5=
EXTT6=
EXTT7=
EXTT8=
EXTT9=
EXTT10=
EXTT11=
EXTT12=
EXTT13=
EXTT14=
EXTT15=
EXTT16=
EXTT17=
EXTT18=
EXTT19=
EXTT20=
EXTT21=
EXTT22=
EXTT23=
EXTT24=
EXTT25=
EXTT26=
PLAYORDER=
